<svg width="720" height="740" viewBox="0 0 720 740" xmlns="http://www.w3.org/2000/svg" font-family="ui-monospace,SFMono-Regular,Menlo,monospace">
  <defs>
    <marker id="arr" viewBox="0 0 10 10" refX="8" refY="5" markerWidth="6" markerHeight="6" orient="auto-start-reverse">
      <path d="M2 1L8 5L2 9" fill="none" stroke="context-stroke" stroke-width="1.5" stroke-linecap="round" stroke-linejoin="round"/>
    </marker>
  </defs>

  <!-- Background -->
  <rect width="720" height="740" fill="#0d1117"/>

  <!-- Column headers -->
  <rect x="60" y="20" width="180" height="44" rx="8" fill="#1c2b3a" stroke="#378ADD" stroke-width="1"/>
  <text x="150" y="47" text-anchor="middle" fill="#85B7EB" font-size="14" font-weight="600">Client</text>

  <rect x="480" y="20" width="180" height="44" rx="8" fill="#1a2e24" stroke="#1D9E75" stroke-width="1"/>
  <text x="570" y="47" text-anchor="middle" fill="#5DCAA5" font-size="14" font-weight="600">ESP32 MicroPython</text>

  <!-- Lifelines -->
  <line x1="150" y1="64" x2="150" y2="710" stroke="#378ADD" stroke-width="1" stroke-dasharray="4 4" opacity="0.4"/>
  <line x1="570" y1="64" x2="570" y2="710" stroke="#1D9E75" stroke-width="1" stroke-dasharray="4 4" opacity="0.4"/>

  <!-- Phase labels -->
  <text x="28" y="115" text-anchor="middle" fill="#888780" font-size="10" transform="rotate(-90,28,115)">HANDSHAKE</text>
  <text x="28" y="310" text-anchor="middle" fill="#888780" font-size="10" transform="rotate(-90,28,310)">TRANSFER</text>
  <text x="28" y="560" text-anchor="middle" fill="#888780" font-size="10" transform="rotate(-90,28,560)">COMMIT</text>
  <text x="28" y="665" text-anchor="middle" fill="#888780" font-size="10" transform="rotate(-90,28,665)">ABORT</text>

  <!-- Phase dividers -->
  <line x1="44" y1="168" x2="676" y2="168" stroke="#30363d" stroke-width="0.5" stroke-dasharray="2 4"/>
  <line x1="44" y1="456" x2="676" y2="456" stroke="#30363d" stroke-width="0.5" stroke-dasharray="2 4"/>
  <line x1="44" y1="628" x2="676" y2="628" stroke="#30363d" stroke-width="0.5" stroke-dasharray="2 4"/>

  <!-- Phase bracket lines -->
  <line x1="44" y1="64"  x2="44" y2="166" stroke="#444" stroke-width="1"/>
  <line x1="44" y1="170" x2="44" y2="454" stroke="#444" stroke-width="1"/>
  <line x1="44" y1="458" x2="44" y2="626" stroke="#444" stroke-width="1"/>
  <line x1="44" y1="630" x2="44" y2="710" stroke="#444" stroke-width="1"/>

  <!-- ── HANDSHAKE ── -->

  <!-- OTA:START box -->
  <rect x="65" y="78" width="170" height="46" rx="6" fill="#1c2533" stroke="#378ADD" stroke-width="0.8"/>
  <text x="150" y="97" text-anchor="middle" fill="#85B7EB" font-size="12" font-weight="600">OTA:START</text>
  <text x="150" y="113" text-anchor="middle" fill="#5B8DB8" font-size="10">filename · size · crc32</text>
  <!-- arrow → -->
  <line x1="237" y1="101" x2="478" y2="101" stroke="#378ADD" stroke-width="1.5" marker-end="url(#arr)"/>

  <!-- OTA:READY box -->
  <rect x="485" y="120" width="170" height="44" rx="6" fill="#152820" stroke="#1D9E75" stroke-width="0.8"/>
  <text x="570" y="138" text-anchor="middle" fill="#5DCAA5" font-size="12" font-weight="600">OTA:READY</text>
  <text x="570" y="153" text-anchor="middle" fill="#3A7A5A" font-size="10">or OTA:REJECT:&lt;reason&gt;</text>
  <!-- arrow ← -->
  <line x1="483" y1="142" x2="239" y2="142" stroke="#1D9E75" stroke-width="1.5" marker-end="url(#arr)"/>

  <!-- ── TRANSFER ── -->

  <!-- OTA:DATA box -->
  <rect x="65" y="182" width="170" height="58" rx="6" fill="#1c2533" stroke="#378ADD" stroke-width="0.8"/>
  <text x="150" y="201" text-anchor="middle" fill="#85B7EB" font-size="12" font-weight="600">OTA:DATA:&lt;seq&gt;</text>
  <text x="150" y="217" text-anchor="middle" fill="#5B8DB8" font-size="10">hex-encoded chunk</text>
  <text x="150" y="231" text-anchor="middle" fill="#5B8DB8" font-size="10">repeated until done</text>
  <!-- arrow → -->
  <line x1="237" y1="210" x2="478" y2="210" stroke="#378ADD" stroke-width="1.5" marker-end="url(#arr)"/>

  <!-- OTA:ACK box -->
  <rect x="485" y="228" width="170" height="44" rx="6" fill="#152820" stroke="#1D9E75" stroke-width="0.8"/>
  <text x="570" y="246" text-anchor="middle" fill="#5DCAA5" font-size="12" font-weight="600">OTA:ACK:&lt;seq&gt;</text>
  <text x="570" y="261" text-anchor="middle" fill="#3A7A5A" font-size="10">or OTA:ERR:&lt;seq&gt;</text>
  <!-- arrow ← -->
  <line x1="483" y1="250" x2="239" y2="250" stroke="#1D9E75" stroke-width="1.5" marker-end="url(#arr)"/>

  <!-- Retry loop -->
  <text x="150" y="298" text-anchor="middle" fill="#888780" font-size="10">↻ retry on ERR (max 5×)</text>
  <path d="M150 270 L150 308 L237 308" fill="none" stroke="#5F5E5A" stroke-width="0.8" stroke-dasharray="3 3" marker-end="url(#arr)"/>

  <!-- Write to _ota_tmp box -->
  <rect x="485" y="322" width="170" height="44" rx="6" fill="#1a1f2e" stroke="#534AB7" stroke-width="0.8"/>
  <text x="570" y="340" text-anchor="middle" fill="#AFA9EC" font-size="12" font-weight="600">write → _ota_tmp</text>
  <text x="570" y="355" text-anchor="middle" fill="#6B65A0" font-size="10">buffered to filesystem</text>
  <!-- internal arrow -->
  <line x1="570" y1="274" x2="570" y2="320" stroke="#534AB7" stroke-width="0.8" stroke-dasharray="3 3" opacity="0.6"/>

  <!-- Progress indicator -->
  <rect x="65" y="380" width="170" height="16" rx="4" fill="#161b22" stroke="#30363d" stroke-width="0.5"/>
  <rect x="65" y="380" width="112" height="16" rx="4" fill="#1D9E75" opacity="0.5"/>
  <text x="150" y="412" text-anchor="middle" fill="#888780" font-size="10">client tracks progress</text>

  <!-- ── COMMIT ── -->

  <!-- OTA:COMMIT box -->
  <rect x="65" y="470" width="170" height="44" rx="6" fill="#1c2533" stroke="#378ADD" stroke-width="0.8"/>
  <text x="150" y="488" text-anchor="middle" fill="#85B7EB" font-size="12" font-weight="600">OTA:COMMIT</text>
  <text x="150" y="503" text-anchor="middle" fill="#5B8DB8" font-size="10">end of stream</text>
  <!-- arrow → -->
  <line x1="237" y1="492" x2="478" y2="492" stroke="#378ADD" stroke-width="1.5" marker-end="url(#arr)"/>

  <!-- verify + rename box -->
  <rect x="485" y="470" width="170" height="58" rx="6" fill="#1a1f2e" stroke="#534AB7" stroke-width="0.8"/>
  <text x="570" y="489" text-anchor="middle" fill="#AFA9EC" font-size="12" font-weight="600">verify CRC32</text>
  <text x="570" y="505" text-anchor="middle" fill="#6B65A0" font-size="10">backup old file</text>
  <text x="570" y="519" text-anchor="middle" fill="#6B65A0" font-size="10">rename → target.py</text>

  <!-- OTA:OK box -->
  <rect x="485" y="546" width="170" height="44" rx="6" fill="#152820" stroke="#1D9E75" stroke-width="0.8"/>
  <text x="570" y="564" text-anchor="middle" fill="#5DCAA5" font-size="12" font-weight="600">OTA:OK</text>
  <text x="570" y="579" text-anchor="middle" fill="#3A7A5A" font-size="10">then machine.reset()</text>
  <!-- down arrow -->
  <line x1="570" y1="530" x2="570" y2="544" stroke="#1D9E75" stroke-width="1.2" marker-end="url(#arr)"/>
  <!-- arrow ← -->
  <line x1="483" y1="568" x2="239" y2="568" stroke="#1D9E75" stroke-width="1.5" marker-end="url(#arr)"/>

  <!-- OTA:ERR:CRC box -->
  <rect x="65" y="546" width="170" height="44" rx="6" fill="#2a1515" stroke="#A32D2D" stroke-width="0.8"/>
  <text x="150" y="564" text-anchor="middle" fill="#F09595" font-size="12" font-weight="600">OTA:ERR:CRC</text>
  <text x="150" y="579" text-anchor="middle" fill="#7A4040" font-size="10">client may retry</text>

  <!-- ── ABORT ── -->

  <!-- OTA:ABORT box -->
  <rect x="65" y="642" width="170" height="44" rx="6" fill="#2a1515" stroke="#A32D2D" stroke-width="0.8"/>
  <text x="150" y="660" text-anchor="middle" fill="#F09595" font-size="12" font-weight="600">OTA:ABORT</text>
  <text x="150" y="675" text-anchor="middle" fill="#7A4040" font-size="10">anytime by client</text>
  <!-- arrow → dashed -->
  <line x1="237" y1="664" x2="478" y2="664" stroke="#A32D2D" stroke-width="1.5" stroke-dasharray="5 3" marker-end="url(#arr)"/>

  <!-- discard buffer box -->
  <rect x="485" y="642" width="170" height="44" rx="6" fill="#2a1515" stroke="#A32D2D" stroke-width="0.8"/>
  <text x="570" y="660" text-anchor="middle" fill="#F09595" font-size="12" font-weight="600">discard buffer</text>
  <text x="570" y="675" text-anchor="middle" fill="#7A4040" font-size="10">restore backup · IDLE</text>
</svg>
