<svg width="720" height="320" viewBox="0 0 720 320" xmlns="http://www.w3.org/2000/svg" font-family="ui-monospace,SFMono-Regular,Menlo,monospace">
  <defs>
    <marker id="arr" viewBox="0 0 10 10" refX="8" refY="5" markerWidth="6" markerHeight="6" orient="auto-start-reverse">
      <path d="M2 1L8 5L2 9" fill="none" stroke="context-stroke" stroke-width="1.5" stroke-linecap="round" stroke-linejoin="round"/>
    </marker>
    <marker id="arr-red" viewBox="0 0 10 10" refX="8" refY="5" markerWidth="6" markerHeight="6" orient="auto-start-reverse">
      <path d="M2 1L8 5L2 9" fill="none" stroke="#A32D2D" stroke-width="1.5" stroke-linecap="round" stroke-linejoin="round"/>
    </marker>
  </defs>

  <!-- Background -->
  <rect width="720" height="320" fill="#0d1117"/>

  <!-- ── State boxes ── -->

  <!-- IDLE -->
  <rect x="40" y="128" width="110" height="44" rx="8" fill="#1c1f26" stroke="#5F5E5A" stroke-width="1"/>
  <text x="95" y="146" text-anchor="middle" fill="#B4B2A9" font-size="13" font-weight="600">IDLE</text>
  <text x="95" y="162" text-anchor="middle" fill="#5F5E5A" font-size="10">initial state</text>

  <!-- ARMED -->
  <rect x="210" y="128" width="120" height="44" rx="8" fill="#152820" stroke="#1D9E75" stroke-width="1"/>
  <text x="270" y="146" text-anchor="middle" fill="#5DCAA5" font-size="13" font-weight="600">ARMED</text>
  <text x="270" y="162" text-anchor="middle" fill="#3A7A5A" font-size="10">ready for data</text>

  <!-- RECEIVING -->
  <rect x="390" y="128" width="130" height="44" rx="8" fill="#152820" stroke="#1D9E75" stroke-width="1"/>
  <text x="455" y="146" text-anchor="middle" fill="#5DCAA5" font-size="13" font-weight="600">RECEIVING</text>
  <text x="455" y="162" text-anchor="middle" fill="#3A7A5A" font-size="10">seq · write chunks</text>

  <!-- COMMITTING -->
  <rect x="580" y="128" width="120" height="44" rx="8" fill="#1a1f2e" stroke="#534AB7" stroke-width="1"/>
  <text x="640" y="146" text-anchor="middle" fill="#AFA9EC" font-size="13" font-weight="600">COMMITTING</text>
  <text x="640" y="162" text-anchor="middle" fill="#6B65A0" font-size="10">verify · rename</text>

  <!-- ── Forward transitions ── -->

  <!-- IDLE → ARMED -->
  <line x1="151" y1="150" x2="208" y2="150" stroke="#1D9E75" stroke-width="1.5" marker-end="url(#arr)"/>
  <text x="180" y="143" text-anchor="middle" fill="#3A7A5A" font-size="10">START ok</text>

  <!-- ARMED → RECEIVING -->
  <line x1="331" y1="150" x2="388" y2="150" stroke="#1D9E75" stroke-width="1.5" marker-end="url(#arr)"/>
  <text x="360" y="143" text-anchor="middle" fill="#3A7A5A" font-size="10">DATA:0</text>

  <!-- RECEIVING → COMMITTING -->
  <line x1="521" y1="150" x2="578" y2="150" stroke="#534AB7" stroke-width="1.5" marker-end="url(#arr)"/>
  <text x="550" y="143" text-anchor="middle" fill="#6B65A0" font-size="10">COMMIT</text>

  <!-- ── COMMITTING → IDLE (success arc, bottom) ── -->
  <path d="M640 173 L640 240 L95 240 L95 173" fill="none" stroke="#1D9E75" stroke-width="1.5" marker-end="url(#arr)"/>
  <text x="368" y="258" text-anchor="middle" fill="#3A7A5A" font-size="10">OTA:OK → machine.reset()</text>

  <!-- ── COMMITTING → IDLE (error arc, slightly lower) ── -->
  <path d="M580 175 L580 270 L95 270 L95 175" fill="none" stroke="#A32D2D" stroke-width="1" stroke-dasharray="4 3" marker-end="url(#arr-red)"/>
  <text x="320" y="286" text-anchor="middle" fill="#7A4040" font-size="10">OTA:ERR:CRC → IDLE</text>

  <!-- ── ABORT arcs (top, dashed red) ── -->
  <!-- ARMED → IDLE -->
  <path d="M270 127 L270 68 L95 68 L95 127" fill="none" stroke="#A32D2D" stroke-width="1" stroke-dasharray="4 3" marker-end="url(#arr-red)"/>

  <!-- RECEIVING → IDLE (shares top arc) -->
  <path d="M455 127 L455 68 L95 68" fill="none" stroke="#A32D2D" stroke-width="1" stroke-dasharray="4 3"/>

  <!-- ABORT label on top arc -->
  <text x="280" y="56" text-anchor="middle" fill="#7A4040" font-size="10">ABORT / REJECT → IDLE</text>

  <!-- ── ERR retry loop on RECEIVING ── -->
  <path d="M455 173 L455 210 L390 210 L390 173" fill="none" stroke="#BA7517" stroke-width="1" stroke-dasharray="3 3" marker-end="url(#arr)"/>
  <text x="423" y="228" text-anchor="middle" fill="#854F0B" font-size="10">ERR → retry chunk</text>

  <!-- ── Legend ── -->
  <line x1="44" y1="298" x2="68" y2="298" stroke="#1D9E75" stroke-width="1.5" marker-end="url(#arr)"/>
  <text x="74" y="302" fill="#5F5E5A" font-size="10">normal transition</text>

  <line x1="200" y1="298" x2="224" y2="298" stroke="#534AB7" stroke-width="1.5" marker-end="url(#arr)"/>
  <text x="230" y="302" fill="#5F5E5A" font-size="10">commit transition</text>

  <line x1="370" y1="298" x2="394" y2="298" stroke="#A32D2D" stroke-width="1" stroke-dasharray="4 3" marker-end="url(#arr-red)"/>
  <text x="400" y="302" fill="#5F5E5A" font-size="10">abort / error</text>

  <line x1="520" y1="298" x2="544" y2="298" stroke="#BA7517" stroke-width="1" stroke-dasharray="3 3" marker-end="url(#arr)"/>
  <text x="550" y="302" fill="#5F5E5A" font-size="10">retry</text>
</svg>
